<?xml version="1.0" encoding="utf-8"?>
<!-- Generator: Adobe Illustrator 24.0.0, SVG Export Plug-In . SVG Version: 6.00 Build 0)  -->
<svg version="1.1" id="Capa_1" xmlns="http://www.w3.org/2000/svg" xmlns:xlink="http://www.w3.org/1999/xlink" x="0px" y="0px"
	 viewBox="0 0 457 200" style="enable-background:new 0 0 457 200;" xml:space="preserve">
<style type="text/css">
	.st0{fill:#8BDC65;}
	.st1{fill:none;}
	.st2{fill:#00986B;}
</style>
<g>
	<g>
		<path class="st0" d="M68,185.4c4,0,7.2-3.2,7.2-7.2S72,171,68,171s-7.2,3.2-7.2,7.2S64,185.4,68,185.4z"/>
		<path class="st0" d="M113,17.2H30.2c-4.2,0-7.5,3.4-7.5,7.5v8.8h97.9v-8.8C120.6,20.5,117.2,17.2,113,17.2z M74.2,27.7H57.3
			c-1.2,0-2.2-0.9-2.2-2.2s0.9-2.2,2.2-2.2h16.9c1.2,0,2.2,0.9,2.2,2.2C76.4,26.7,75.4,27.7,74.2,27.7z M85.2,27.7h-4.3
			c-1.2,0-2.2-0.9-2.2-2.2s0.9-2.2,2.2-2.2h4.3c1.2,0,2.2,0.9,2.2,2.2C87.3,26.7,86.4,27.7,85.2,27.7z"/>
		<g>
			<path class="st1" d="M68,185.4c4,0,7.2-3.2,7.2-7.2S72,171,68,171s-7.2,3.2-7.2,7.2S64,185.4,68,185.4z"/>
			<path class="st1" d="M113,17.2H30.2c-4.2,0-7.5,3.4-7.5,7.5v8.8h97.9v-8.8C120.6,20.5,117.2,17.2,113,17.2z"/>
			<path class="st2" d="M113,12.8H30.2c-6.5,0-11.8,5.3-11.8,11.8v144c0,6.5,5.3,11.8,11.8,11.8h26.5c1,5.3,5.7,9.4,11.2,9.4
				c6.3,0,11.5-5.2,11.5-11.5s-5.2-11.5-11.5-11.5c-5.6,0-10.2,4.1-11.2,9.4H30.2c-4.2,0-7.5-3.4-7.5-7.5V37.8h97.9v103.6
				c0,12.8-10.4,23.1-23.1,23.1S74.6,154,74.6,141.4v-14.6c30.8-21.5,37.1-34.2,37.1-46.8c0-12.9-8.7-22.4-20.7-22.4
				c-7.5,0-15,3.5-15,10.2c0,3.3,2.7,6,6,6s6-2.7,6-6c0-2.1-1-3.9-2.6-5c1.8-0.6,3.9-0.9,5.6-0.9c9.5,0,16.4,7.6,16.4,18.1
				c0,9.1-2.7,20.5-35,43c-32.2-22.5-35-34-35-43c0.1-10.5,7-18,16.6-18c1.7,0,3.8,0.3,5.6,0.9C58,64,57,65.8,57,67.9
				c0,3.3,2.7,6,6,6c3.3,0,6-2.7,6-6c0-6.7-7.6-10.2-15-10.2c-12,0-20.7,9.5-20.7,22.4c0,12.6,6.3,25.4,37.1,46.8v14.7
				c0,15.1,12.3,27.4,27.4,27.4s27.4-12.3,27.4-27.4v-117C125,18.1,119.6,12.8,113,12.8z M68,171.1c4,0,7.2,3.2,7.2,7.2
				s-3.2,7.2-7.2,7.2s-7.2-3.2-7.2-7.2S64,171.1,68,171.1z M120.6,33.4H22.7v-8.8c0-4.2,3.4-7.5,7.5-7.5H113c4.2,0,7.5,3.4,7.5,7.5
				L120.6,33.4L120.6,33.4z"/>
		</g>
		<path class="st2" d="M74.2,23.3H57.3c-1.2,0-2.2,0.9-2.2,2.2s0.9,2.2,2.2,2.2h16.9c1.2,0,2.2-0.9,2.2-2.2
			C76.4,24.4,75.4,23.3,74.2,23.3z"/>
		<path class="st2" d="M85.2,23.3h-4.3c-1.2,0-2.2,0.9-2.2,2.2s0.9,2.2,2.2,2.2h4.3c1.2,0,2.2-0.9,2.2-2.2
			C87.3,24.4,86.4,23.3,85.2,23.3z"/>
	</g>
	<g>
		<path class="st2" d="M160.9,108.7c0-16.6,10.5-27.4,26-27.4c15.1,0,24.6,9.5,24.6,23.8c0,2.3-0.2,5.1-0.6,6.9h-35.1
			c-0.2,8,4.2,12.5,11.1,12.5c5.2,0,9.1-2.5,10.2-6.3h14.8c-1.9,10.6-11.8,17.7-24.8,17.7C171.5,135.9,160.9,125.1,160.9,108.7z
			 M196.6,102.2c-0.1-6-3.9-9.6-10.2-9.6c-6.2,0-10.2,3.8-10.4,9.6H196.6z"/>
		<path class="st0" d="M235.7,98.9c5.6,0,10.1,4.8,10.1,10.5c0,5.6-4.5,10.3-10.1,10.3c-5.5,0-10-4.6-10-10.3
			C225.7,103.6,230.2,98.9,235.7,98.9z"/>
		<path class="st2" d="M303.4,134.9l-2-9.4h-0.8c-2.9,6.8-9.8,10.4-17.4,10.4c-13.2,0-21.5-10.4-21.5-27c0-17.3,8.6-27.6,21.5-27.6
			c9,0,14.8,4.7,17.4,11.1h0.8V61.9h15v73H303.4z M301.4,106.8c0-8.5-5.1-13.2-12.3-13.2c-8,0-12.1,6-12.1,15.2
			c0,9.9,4.7,14.8,11.9,14.8c7.9,0,12.5-5.4,12.5-13V106.8z"/>
		<path class="st2" d="M353.9,81.3c15.8,0,26.3,11.2,26.3,27.4c0,16-10.5,27.1-26.3,27.1c-15.9,0-26.4-11.1-26.4-27.2
			S338,81.3,353.9,81.3z M353.8,123.5c7.1,0,11.1-6,11.1-15s-4.1-14.8-11.2-14.8c-7,0-11,6.1-11,14.9
			C342.7,117.9,347,123.5,353.8,123.5z"/>
		<path class="st2" d="M414.2,135.9c-15.8,0-26.2-10.9-26.2-27.3s10.5-27.3,26.4-27.3c13.3,0,23.2,7.7,24.2,20h-14.8
			c-1-5.3-4.8-7.6-9.6-7.6c-7.5,0-11,5.9-11,15c0,10.1,4.3,14.9,10.9,14.9c5.7,0,9.1-3.3,9.7-8h14.8
			C437.9,127.8,427.9,135.9,414.2,135.9z"/>
	</g>
</g>
</svg>
