<?xml version="1.0" encoding="utf-8"?>
<!-- Generator: Adobe Illustrator 24.0.0, SVG Export Plug-In . SVG Version: 6.00 Build 0)  -->
<svg version="1.1" id="Capa_1" xmlns="http://www.w3.org/2000/svg" xmlns:xlink="http://www.w3.org/1999/xlink" x="0px" y="0px"
	 viewBox="0 0 200 200" style="enable-background:new 0 0 200 200;" xml:space="preserve">
<style type="text/css">
	.st0{fill-rule:evenodd;clip-rule:evenodd;fill:#8BDC85;}
</style>
<g>
	<path class="st0" d="M80.4,100.6v72.9c0,1,0.8,2,2,2l0,0h27c1,0,2-0.8,2-1.8l0,0V99.3h19.5c1,0,1.8-0.8,2-1.8l2-22.3
		c0.2-1-0.7-2-1.8-2.1h-0.2h-21.5V57.3c0-3.7,2.9-6.7,6.7-6.7l0,0h15.1c1,0,2-0.8,2-2V26.5c0-1-0.8-2-2-2l0,0h-25.5
		c-15,0-27.2,12.2-27.2,27.2v21.5H66.9c-1,0-2,0.8-2,2v22.3c0,1,0.8,2,2,2l0,0h13.5V100.6z"/>
</g>
</svg>
